<svg width="100" height="30" viewBox="0 0 100 30" fill="none" xmlns="http://www.w3.org/2000/svg">
<g clip-path="url(#clip0_4515_14)">
<path fill-rule="evenodd" clip-rule="evenodd" d="M0.928 0.729C0.309 1.215 0 1.895 0 2.769C0 3.634 0.31 4.309 0.928 4.795C1.546 5.281 2.275 5.525 3.112 5.525C3.94 5.525 4.662 5.279 5.275 4.788C5.889 4.298 6.195 3.624 6.195 2.769C6.195 1.895 5.889 1.215 5.275 0.729C4.66 0.243 3.94 0 3.112 0C2.275 0 1.546 0.243 0.928 0.729ZM5.859 6.807H0.336V21.31H5.86V6.806L5.859 6.807ZM7.11 21.31V6.559H11.975L12.223 8.177C12.7997 7.49886 13.5382 6.97711 14.37 6.66C15.1249 6.36514 15.9276 6.21192 16.738 6.208H16.884C17.536 6.218 18.138 6.293 18.688 6.434C19.238 6.575 19.762 6.814 20.258 7.148C20.756 7.484 21.18 7.911 21.53 8.431C21.88 8.951 22.158 9.609 22.363 10.406C22.568 11.203 22.67 12.111 22.67 13.132V21.309H17.16V13.161C17.16 12.315 16.96 11.696 16.561 11.302C16.161 10.909 15.67 10.712 15.085 10.712C14.375 10.712 13.773 10.957 13.281 11.448C12.789 11.938 12.543 12.641 12.543 13.554V21.309H7.108L7.11 21.31ZM23.713 6.559V21.309H29.149V13.555C29.149 12.642 29.395 11.94 29.887 11.449C30.379 10.959 30.98 10.713 31.691 10.713C32.276 10.713 32.768 10.91 33.167 11.303C33.567 11.697 33.767 12.316 33.767 13.162V21.309H39.275V13.133C39.275 12.113 39.172 11.203 38.968 10.407C38.763 9.61 38.486 8.952 38.135 8.432C37.7984 7.9261 37.3667 7.49037 36.864 7.149C36.3858 6.82223 35.8546 6.58066 35.294 6.435C34.703 6.28885 34.0968 6.21299 33.488 6.209H33.342C32.553 6.209 31.764 6.359 30.975 6.661C30.1429 6.97768 29.4041 7.49909 28.827 8.177L28.579 6.559H23.713ZM40.249 13.665C40.249 12.159 40.617 10.828 41.352 9.671C42.0725 8.52819 43.1005 7.6115 44.318 7.026C45.56 6.419 46.946 6.115 48.475 6.115C49.508 6.115 50.526 6.3 51.529 6.669L52.731 5.149C52.893 4.943 53.023 4.774 53.122 4.643L55.668 5.265L57.096 7.485L55.182 9.745C56.127 10.794 56.6 12.023 56.6 13.432V13.723C56.5776 14.6677 56.3272 15.593 55.87 16.42C55.3914 17.2964 54.7156 18.0496 53.896 18.62C54.53 18.98 55.058 19.384 55.482 19.83C55.906 20.278 56.205 20.717 56.381 21.15C56.556 21.582 56.671 21.94 56.724 22.22C56.777 22.503 56.804 22.785 56.804 23.066C56.804 23.989 56.648 24.826 56.337 25.573C56.025 26.321 55.604 26.943 55.073 27.439C54.542 27.934 53.913 28.349 53.188 28.685C52.4639 29.0199 51.7006 29.2624 50.916 29.407C50.126 29.552 49.294 29.625 48.417 29.625C45.777 29.625 43.756 28.979 42.353 27.687C41.087 26.521 40.453 24.961 40.453 23.008C40.453 22.804 40.458 22.595 40.468 22.381H45.641V22.483C45.641 22.962 45.7 23.369 45.817 23.704L45.845 23.78C45.982 24.17 46.189 24.46 46.466 24.655C46.744 24.849 47.039 24.985 47.35 25.063C47.662 25.141 48.018 25.18 48.417 25.18C49.187 25.18 49.834 24.998 50.36 24.633C50.886 24.269 51.15 23.747 51.15 23.066C51.15 22.474 50.938 21.997 50.514 21.638C50.106 21.292 49.463 21.113 48.582 21.099H48.476C45.982 21.099 43.987 20.429 42.492 19.087C40.997 17.747 40.249 15.939 40.249 13.665ZM46.422 15.735C45.882 15.205 45.612 14.508 45.612 13.643C45.612 12.69 45.879 11.945 46.415 11.405C46.951 10.866 47.638 10.596 48.475 10.596C49.275 10.596 49.939 10.893 50.47 11.486C51 12.078 51.266 12.797 51.266 13.643C51.266 14.576 50.998 15.29 50.463 15.785C49.927 16.281 49.265 16.529 48.476 16.529C47.648 16.529 46.963 16.264 46.423 15.734L46.422 15.735ZM57.4 13.962C57.4 12.922 57.558 11.968 57.874 11.098C58.191 10.228 58.614 9.498 59.146 8.905C59.6814 8.30855 60.307 7.79971 61 7.397C61.6949 6.98853 62.4459 6.68397 63.229 6.493C64.008 6.303 64.807 6.209 65.625 6.209C66.94 6.209 68.135 6.421 69.212 6.843C70.289 7.266 71.182 7.876 71.893 8.673C72.605 9.469 73.096 10.441 73.369 11.588C73.484 12.073 73.543 12.583 73.546 13.118L73.545 13.278C73.545 13.968 73.462 14.707 73.296 15.494H62.966C63.151 16.096 63.574 16.56 64.236 16.886C64.899 17.211 65.576 17.374 66.268 17.374C67.729 17.374 68.995 16.976 70.067 16.179L72.756 19.196C71.8775 20.0098 70.8401 20.6328 69.709 21.026C68.545 21.438 67.315 21.645 66.019 21.645C64.821 21.645 63.713 21.495 62.695 21.193C61.7111 20.9088 60.7875 20.4468 59.97 19.83C59.171 19.223 58.543 18.419 58.085 17.418C57.627 16.417 57.399 15.266 57.399 13.963L57.4 13.962ZM68.358 11.966H62.996C63.064 11.509 63.29 11.125 63.676 10.814C64.06 10.504 64.506 10.314 65.012 10.246C65.507 10.1838 66.0082 10.1885 66.502 10.26C67 10.338 67.426 10.53 67.782 10.836C68.137 11.142 68.329 11.519 68.358 11.966ZM73.57 19.764L75.367 15.755C76.059 16.202 76.765 16.555 77.486 16.812C78.206 17.069 78.769 17.225 79.174 17.278C79.578 17.332 80.053 17.373 80.598 17.402C81.602 17.402 82.103 17.164 82.103 16.688C82.103 16.231 81.583 15.959 80.54 15.872C79.944 15.8544 79.3502 15.7908 78.764 15.682C78.1791 15.5706 77.6083 15.3949 77.062 15.158C76.5301 14.9351 76.0351 14.6326 75.594 14.261C75.1639 13.8845 74.8201 13.4195 74.586 12.898C74.327 12.345 74.198 11.723 74.198 11.033C74.198 10.178 74.388 9.429 74.768 8.788C75.1393 8.15489 75.6744 7.6336 76.317 7.279C76.9947 6.90555 77.7234 6.63333 78.48 6.471C79.3152 6.29105 80.1676 6.20286 81.022 6.208C82.201 6.208 83.321 6.368 84.382 6.689C85.445 7.009 86.341 7.447 87.072 8.001L84.734 11.281C84.358 11.043 83.831 10.839 83.153 10.671L83.023 10.639C82.323 10.464 81.685 10.377 81.11 10.377H81.022C80.145 10.377 79.707 10.62 79.707 11.106C79.707 11.281 79.792 11.441 79.963 11.586C80.122 11.723 80.381 11.799 80.739 11.816L80.817 11.82C81.499 11.84 82.133 11.893 82.717 11.98C83.3326 12.0753 83.9372 12.2314 84.522 12.446C85.14 12.67 85.669 12.956 86.107 13.306C86.545 13.656 86.903 14.12 87.181 14.699C87.459 15.277 87.597 15.939 87.597 16.688C87.597 17.398 87.473 18.036 87.225 18.605C86.9949 19.1473 86.648 19.6321 86.209 20.025C85.7514 20.4227 85.2336 20.7453 84.675 20.981C84.0736 21.2403 83.443 21.426 82.797 21.534C82.14 21.646 81.446 21.702 80.715 21.702C79.4 21.702 78.085 21.53 76.77 21.185C75.455 20.84 74.388 20.365 73.57 19.764ZM87.857 6.646V10.859H90.224V15.946C90.214 16.742 90.297 17.456 90.472 18.088C90.667 18.788 90.93 19.358 91.262 19.801C91.592 20.243 91.997 20.607 92.474 20.894C92.951 21.181 93.453 21.382 93.979 21.499C94.5409 21.6194 95.1143 21.6781 95.689 21.674C97.364 21.674 98.781 21.344 99.941 20.683L98.742 16.616C98.216 16.956 97.681 17.126 97.135 17.126C96.18 17.126 95.688 16.65 95.659 15.698V10.858H99.02V6.647H95.689V2.39L90.224 2.988V6.646H87.857Z" fill="white"/>
</g>
<defs>
<clipPath id="clip0_4515_14">
<rect width="100" height="30" fill="white"/>
</clipPath>
</defs>
</svg>
